<svg width="60" height="63" viewBox="0 0 60 63" fill="none" xmlns="http://www.w3.org/2000/svg">
<g filter="url(#filter0_d_3253_3645)">
<path d="M6 12.7891C6 6.16165 11.3726 0.789062 18 0.789062H42C48.6274 0.789062 54 6.16165 54 12.7891V36.7891C54 43.4165 48.6274 48.7891 42 48.7891H18C11.3726 48.7891 6 43.4165 6 36.7891V12.7891Z" fill="url(#paint0_linear_3253_3645)" shape-rendering="crispEdges"/>
<path d="M7 12.7891C7 6.71393 11.9249 1.78906 18 1.78906H42C48.0751 1.78906 53 6.71393 53 12.7891V36.7891C53 42.8642 48.0751 47.7891 42 47.7891H18C11.9249 47.7891 7 42.8642 7 36.7891V12.7891Z" fill="url(#paint1_linear_3253_3645)"/>
<g clip-path="url(#clip0_3253_3645)">
<g opacity="0.65">
<path d="M36.2875 32.3834C36.3335 32.4381 36.363 32.5048 36.3723 32.5757C36.3817 32.6465 36.3707 32.7186 36.3405 32.7833C36.3103 32.8481 36.2622 32.9029 36.2019 32.9412C36.1416 32.9796 36.0717 33 36.0002 32.9999H20.2499C20.2499 32.9999 20.2499 32.9999 20.2499 32.9999C20.1785 32.9998 20.1085 32.9794 20.0484 32.9411C19.9881 32.9027 19.9401 32.8479 19.91 32.7831C19.8799 32.7184 19.8689 32.6464 19.8783 32.5756C19.8876 32.5048 19.9171 32.4381 19.963 32.3835C21.3208 30.7677 23.0047 29.6248 24.8712 29.0138L25.6347 28.7638L24.9528 28.3391C23.8462 27.6499 22.9942 26.619 22.5257 25.4025C22.0572 24.186 21.9976 22.8499 22.356 21.5965C22.7145 20.3431 23.4713 19.2405 24.5122 18.4556C25.553 17.6707 26.8212 17.2461 28.1248 17.2461C29.4285 17.2461 30.6966 17.6707 31.7375 18.4556C32.7783 19.2405 33.5352 20.3431 33.8936 21.5965C34.252 22.8499 34.1925 24.186 33.7239 25.4025C33.2554 26.619 32.4034 27.6499 31.2969 28.3391L30.6149 28.7638L31.3785 29.0138C33.245 29.6248 34.9288 30.7675 36.2875 32.3834ZM36.5745 32.1421C36.6665 32.2514 36.7253 32.3848 36.7441 32.5265C36.7629 32.6682 36.7407 32.8122 36.6804 32.9418C36.62 33.0713 36.5238 33.1809 36.4033 33.2576C36.2827 33.3343 36.1427 33.375 35.9998 33.3749L36.5745 32.1421ZM36.6025 19.2251C36.6939 19.186 36.7975 19.1847 36.8898 19.2217C36.9819 19.2586 37.0555 19.3305 37.0947 19.4216C37.6095 20.6322 37.8748 21.9343 37.8748 23.2499C37.8748 24.5654 37.6095 25.8675 37.0947 27.0781C37.0555 27.1694 36.9818 27.2414 36.8896 27.2784C36.7972 27.3155 36.6939 27.3143 36.6023 27.2752C36.5108 27.2361 36.4385 27.1622 36.4015 27.0698C36.3644 26.9774 36.3655 26.8741 36.4047 26.7825C36.8798 25.6655 37.1248 24.4637 37.1248 23.2499C37.1248 22.036 36.88 20.8347 36.4049 19.7178C36.3856 19.6725 36.3751 19.6233 36.3746 19.5741C36.3741 19.5248 36.3833 19.4759 36.4016 19.4302C36.42 19.3845 36.4472 19.3429 36.4817 19.3077C36.5161 19.2725 36.5572 19.2444 36.6025 19.2251ZM39.8425 18.2171L39.8466 18.2269C40.5251 19.8146 40.8749 21.5233 40.8749 23.2499C40.8749 24.9765 40.5251 26.6851 39.8466 28.2728L39.8425 28.2826C39.8241 28.3293 39.7965 28.3718 39.7614 28.4076C39.7263 28.4435 39.6843 28.4719 39.638 28.4912C39.5917 28.5105 39.542 28.5203 39.4918 28.5201C39.4417 28.5198 39.3921 28.5095 39.3459 28.4898C39.2998 28.47 39.2582 28.4412 39.2234 28.405C39.1886 28.3689 39.1614 28.3261 39.1435 28.2792C39.1255 28.2324 39.1172 28.1824 39.1189 28.1323C39.1206 28.0821 39.1324 28.0328 39.1535 27.9873L39.1582 27.9768C39.796 26.4825 40.1248 24.8746 40.1248 23.2499C40.1248 21.6251 39.796 20.0172 39.1582 18.5229L39.1535 18.5124C39.1324 18.4669 39.1206 18.4176 39.1189 18.3675C39.1172 18.3173 39.1255 18.2673 39.1435 18.2205C39.1614 18.1736 39.1886 18.1309 39.2234 18.0947C39.2582 18.0585 39.2998 18.0297 39.3459 18.01C39.3921 17.9902 39.4417 17.9799 39.4918 17.9796C39.542 17.9794 39.5917 17.9892 39.638 18.0085C39.6843 18.0279 39.7263 18.0563 39.7614 18.0921C39.7965 18.1279 39.8241 18.1704 39.8425 18.2171Z" fill="#2D4DE1"/>
<path d="M20.2499 32.9999H36.0002C36.0717 33 36.1416 32.9796 36.2019 32.9412C36.2622 32.9029 36.3103 32.8481 36.3405 32.7833C36.3707 32.7186 36.3817 32.6465 36.3723 32.5757C36.363 32.5048 36.3335 32.4381 36.2875 32.3834C34.9288 30.7675 33.245 29.6248 31.3785 29.0138L30.6149 28.7638L31.2969 28.3391C32.4034 27.6499 33.2554 26.619 33.7239 25.4025C34.1925 24.186 34.252 22.8499 33.8936 21.5965C33.5352 20.3431 32.7783 19.2405 31.7375 18.4556C30.6966 17.6707 29.4285 17.2461 28.1248 17.2461C26.8212 17.2461 25.553 17.6707 24.5122 18.4556C23.4713 19.2405 22.7145 20.3431 22.356 21.5965C21.9976 22.8499 22.0572 24.186 22.5257 25.4025C22.9942 26.619 23.8462 27.6499 24.9528 28.3391L25.6347 28.7638L24.8712 29.0138C23.0047 29.6248 21.3208 30.7677 19.963 32.3835C19.9171 32.4381 19.8876 32.5048 19.8783 32.5756C19.8689 32.6464 19.8799 32.7184 19.91 32.7831C19.9401 32.8479 19.9881 32.9027 20.0484 32.9411C20.1085 32.9794 20.1785 32.9998 20.2499 32.9999ZM20.2499 32.9999C20.2499 32.9999 20.2499 32.9999 20.2499 32.9999ZM36.5745 32.1421C36.6665 32.2514 36.7253 32.3848 36.7441 32.5265C36.7629 32.6682 36.7407 32.8122 36.6804 32.9418C36.62 33.0713 36.5238 33.1809 36.4033 33.2576C36.2827 33.3343 36.1427 33.375 35.9998 33.3749L36.5745 32.1421ZM36.6025 19.2251C36.6939 19.186 36.7975 19.1847 36.8898 19.2217C36.9819 19.2586 37.0555 19.3305 37.0947 19.4216C37.6095 20.6322 37.8748 21.9343 37.8748 23.2499C37.8748 24.5654 37.6095 25.8675 37.0947 27.0781C37.0555 27.1694 36.9818 27.2414 36.8896 27.2784C36.7972 27.3155 36.6939 27.3143 36.6023 27.2752C36.5108 27.2361 36.4385 27.1622 36.4015 27.0698C36.3644 26.9774 36.3655 26.8741 36.4047 26.7825C36.8798 25.6655 37.1248 24.4637 37.1248 23.2499C37.1248 22.036 36.88 20.8347 36.4049 19.7178C36.3856 19.6725 36.3751 19.6233 36.3746 19.5741C36.3741 19.5248 36.3833 19.4759 36.4016 19.4302C36.42 19.3845 36.4472 19.3429 36.4817 19.3077C36.5161 19.2725 36.5572 19.2444 36.6025 19.2251ZM39.8425 18.2171L39.8466 18.2269C40.5251 19.8146 40.8749 21.5233 40.8749 23.2499C40.8749 24.9765 40.5251 26.6851 39.8466 28.2728L39.8425 28.2826C39.8241 28.3293 39.7965 28.3718 39.7614 28.4076C39.7263 28.4435 39.6843 28.4719 39.638 28.4912C39.5917 28.5105 39.542 28.5203 39.4918 28.5201C39.4417 28.5198 39.3921 28.5095 39.3459 28.4898C39.2998 28.47 39.2582 28.4412 39.2234 28.405C39.1886 28.3689 39.1614 28.3261 39.1435 28.2792C39.1255 28.2324 39.1172 28.1824 39.1189 28.1323C39.1206 28.0821 39.1324 28.0328 39.1535 27.9873L39.1582 27.9768C39.796 26.4825 40.1248 24.8746 40.1248 23.2499C40.1248 21.6251 39.796 20.0172 39.1582 18.5229L39.1535 18.5124C39.1324 18.4669 39.1206 18.4176 39.1189 18.3675C39.1172 18.3173 39.1255 18.2673 39.1435 18.2205C39.1614 18.1736 39.1886 18.1309 39.2234 18.0947C39.2582 18.0585 39.2998 18.0297 39.3459 18.01C39.3921 17.9902 39.4417 17.9799 39.4918 17.9796C39.542 17.9794 39.5917 17.9892 39.638 18.0085C39.6843 18.0279 39.7263 18.0563 39.7614 18.0921C39.7965 18.1279 39.8241 18.1704 39.8425 18.2171Z" stroke="#2D4DE1" stroke-width="0.75"/>
</g>
</g>
</g>
<defs>
<filter id="filter0_d_3253_3645" x="0" y="0.789062" width="60" height="62" filterUnits="userSpaceOnUse" color-interpolation-filters="sRGB">
<feFlood flood-opacity="0" result="BackgroundImageFix"/>
<feColorMatrix in="SourceAlpha" type="matrix" values="0 0 0 0 0 0 0 0 0 0 0 0 0 0 0 0 0 0 127 0" result="hardAlpha"/>
<feMorphology radius="10" operator="erode" in="SourceAlpha" result="effect1_dropShadow_3253_3645"/>
<feOffset dy="8"/>
<feGaussianBlur stdDeviation="8"/>
<feComposite in2="hardAlpha" operator="out"/>
<feColorMatrix type="matrix" values="0 0 0 0 0.0392157 0 0 0 0 0.00392157 0 0 0 0 0.388235 0 0 0 0.4 0"/>
<feBlend mode="normal" in2="BackgroundImageFix" result="effect1_dropShadow_3253_3645"/>
<feBlend mode="normal" in="SourceGraphic" in2="effect1_dropShadow_3253_3645" result="shape"/>
</filter>
<linearGradient id="paint0_linear_3253_3645" x1="30" y1="0.789062" x2="30" y2="48.7891" gradientUnits="userSpaceOnUse">
<stop offset="1" stop-color="#6D85EB" stop-opacity="0.5"/>
</linearGradient>
<linearGradient id="paint1_linear_3253_3645" x1="30" y1="1.78906" x2="30" y2="47.7891" gradientUnits="userSpaceOnUse">
<stop stop-color="#ECF1FF"/>
<stop offset="1" stop-color="#DFE8FF"/>
</linearGradient>
<clipPath id="clip0_3253_3645">
<rect width="24" height="25" fill="white" transform="translate(18 12.2891)"/>
</clipPath>
</defs>
</svg>
