<svg width="40" height="40" viewBox="0 0 40 40" fill="none" xmlns="http://www.w3.org/2000/svg">
<path d="M19.9964 12.7154C21.5404 12.7154 22.81 13.9697 22.81 15.5204H26.1839C26.1839 12.704 24.2739 10.3324 21.6891 9.59125V6.54688H18.3151V9.59125C15.7303 10.321 13.8203 12.704 13.8203 15.5204C13.8203 18.9182 16.5881 21.6775 19.9964 21.6775C21.5404 21.6775 22.81 22.9318 22.81 24.4825C22.81 26.0218 21.5519 27.2874 19.9964 27.2874C18.4409 27.2874 17.1829 26.0332 17.1829 24.4825H13.8203C13.8203 27.2988 15.7303 29.6705 18.3151 30.4116V33.456H21.6891V30.4116C24.2739 29.6819 26.1839 27.2988 26.1839 24.4825C26.1839 21.0846 23.4161 18.3253 20.0078 18.3253C18.4638 18.3253 17.1943 17.0711 17.1943 15.5204C17.1829 13.9697 18.4524 12.7154 19.9964 12.7154Z" fill="#434343"/>
<path d="M20 0C8.97682 0 0 8.97682 0 20C0 31.0232 8.97682 40 20 40C31.0232 40 40 31.0232 40 20C40 8.97682 31.0232 0 20 0ZM20 36.6648C10.8084 36.6648 3.33522 29.1916 3.33522 20C3.33522 10.8084 10.8084 3.33522 20 3.33522C29.1916 3.33522 36.6648 10.8084 36.6648 20C36.6648 29.1916 29.1916 36.6648 20 36.6648Z" fill="#434343"/>
</svg>
