<svg width="55" height="41" viewBox="0 0 55 41" fill="none" xmlns="http://www.w3.org/2000/svg">
<path d="M48.3797 8.13474C48.0537 7.75046 48.0626 7.13609 48.4043 6.76446C48.7437 6.39534 49.2863 6.40545 49.6145 6.79227L49.6927 6.88581C50.0187 7.27009 50.0098 7.88447 49.6681 8.2561C49.3287 8.62521 48.7861 8.6151 48.4579 8.22829L48.3797 8.13474ZM6.83053 33.0655H22.8273C21.4384 31.0379 20.3867 28.6993 19.7637 26.161H3.3067C3.39379 26.4821 3.48981 26.7981 3.59253 27.1091C3.75776 27.6097 3.53223 28.1658 3.0901 28.353C2.64797 28.54 2.15673 28.2847 1.99147 27.7841C1.62973 26.6818 1.34837 25.5289 1.15859 24.3382C0.973248 23.1651 0.875 21.9693 0.875 20.7659C0.875 15.219 2.86237 10.193 6.07339 6.55754C9.28442 2.92199 13.7214 0.671875 18.6226 0.671875C21.9564 0.671875 25.0782 1.71351 27.742 3.52623C30.4082 1.71351 33.5276 0.671875 36.8614 0.671875C38.688 0.671875 40.4565 0.987898 42.1223 1.57442C43.8439 2.17865 45.4583 3.07616 46.9098 4.20626C47.2983 4.50964 47.3966 5.11385 47.1286 5.55124C46.8607 5.99115 46.327 6.10239 45.9407 5.799C44.6299 4.77511 43.1741 3.96861 41.6199 3.42249C40.1216 2.89662 38.5227 2.61094 36.8614 2.61094C34.1394 2.61094 31.5737 3.37951 29.3272 4.73718C29.977 5.29591 30.5933 5.90269 31.1694 6.55495C34.3804 10.1905 36.3678 15.2141 36.3678 20.7633C36.3678 26.3127 34.3804 31.3362 31.1694 34.9717C30.5933 35.6239 29.977 36.2307 29.3272 36.7894C31.5736 38.1471 34.1393 38.9157 36.8614 38.9157C41.2894 38.9157 45.2977 36.883 48.1982 33.5989C51.0987 30.3148 52.8941 25.7766 52.8941 20.7633C52.8941 19.0037 52.6753 17.3098 52.2712 15.7221C51.8491 14.0711 51.2239 12.5088 50.4267 11.0828C50.1766 10.6303 50.295 10.0311 50.6947 9.74793C51.0944 9.46478 51.6236 9.59877 51.8737 10.0513C52.7513 11.6239 53.4435 13.3506 53.9101 15.1835C54.3634 16.9634 54.6069 18.8368 54.6069 20.7633C54.6069 26.3101 52.6195 31.3362 49.4085 34.9716C46.1974 38.6072 41.7605 40.8573 36.8592 40.8573C33.5254 40.8573 30.4037 39.8157 27.7398 38.0029C25.0736 39.8157 21.9542 40.8573 18.6204 40.8573C15.5747 40.8573 12.7051 39.985 10.1979 38.4504C7.59645 36.8577 5.38357 34.5545 3.77148 31.7711C3.51246 31.3236 3.62411 30.7219 4.01934 30.4287C4.41457 30.1354 4.94603 30.2618 5.20504 30.7093C5.6896 31.5436 6.23445 32.3324 6.82839 33.0656L6.83053 33.0655ZM24.3439 35.0072H8.67979C9.40772 35.662 10.187 36.2435 11.011 36.7466C13.273 38.132 15.8677 38.9183 18.623 38.9183C21.345 38.9183 23.9107 38.1497 26.1572 36.7921C25.5163 36.2435 24.9111 35.6468 24.3439 35.0072ZM2.87592 24.2194H19.3775C19.2055 23.0968 19.1162 21.944 19.1162 20.7684C19.1162 19.5903 19.2055 18.4374 19.3775 17.3149H2.88049C2.69069 18.4324 2.5902 19.5878 2.5902 20.7684C2.5902 21.8859 2.67506 22.9654 2.8403 23.9995L2.87592 24.2194ZM3.31135 15.3732H19.7638C20.3867 12.8349 21.4407 10.4963 22.8296 8.46871H6.83283C5.24298 10.423 4.0259 12.7742 3.31135 15.3732ZM8.68163 6.52706H24.3435C24.9106 5.88743 25.518 5.29074 26.1566 4.74216C23.9103 3.3845 21.3446 2.61593 18.6224 2.61593C14.8688 2.61593 11.4146 4.07721 8.681 6.52706H8.68163ZM27.7424 35.6997C28.5351 35.0778 29.2787 34.3749 29.9575 33.6038C32.8582 30.3197 34.6535 25.7816 34.6535 20.7682C34.6535 15.7549 32.8582 11.2192 29.9575 7.93262C29.2765 7.16152 28.5351 6.46124 27.7424 5.83674C26.9497 6.45867 26.2062 7.16152 25.5273 7.93262C22.6267 11.2167 20.8314 15.7549 20.8314 20.7682C20.8314 25.7816 22.6267 30.3173 25.5273 33.6038C26.2084 34.3749 26.9497 35.0752 27.7424 35.6997Z" fill="black"/>
</svg>
