<svg width="25" height="24" viewBox="0 0 25 24" fill="none" xmlns="http://www.w3.org/2000/svg">
<path d="M4.64062 6C4.64062 4.89543 5.53606 4 6.64062 4H8.64062C9.74519 4 10.6406 4.89543 10.6406 6V8C10.6406 9.10457 9.74519 10 8.64062 10H6.64062C5.53606 10 4.64062 9.10457 4.64062 8V6Z" stroke="#6C7787" stroke-width="1.5" stroke-linecap="round" stroke-linejoin="round"/>
<path d="M14.6406 6C14.6406 4.89543 15.5361 4 16.6406 4H18.6406C19.7452 4 20.6406 4.89543 20.6406 6V8C20.6406 9.10457 19.7452 10 18.6406 10H16.6406C15.5361 10 14.6406 9.10457 14.6406 8V6Z" stroke="#6C7787" stroke-width="1.5" stroke-linecap="round" stroke-linejoin="round"/>
<path d="M4.64062 16C4.64062 14.8954 5.53606 14 6.64062 14H8.64062C9.74519 14 10.6406 14.8954 10.6406 16V18C10.6406 19.1046 9.74519 20 8.64062 20H6.64062C5.53606 20 4.64062 19.1046 4.64062 18V16Z" stroke="#6C7787" stroke-width="1.5" stroke-linecap="round" stroke-linejoin="round"/>
<path d="M14.6406 16C14.6406 14.8954 15.5361 14 16.6406 14H18.6406C19.7452 14 20.6406 14.8954 20.6406 16V18C20.6406 19.1046 19.7452 20 18.6406 20H16.6406C15.5361 20 14.6406 19.1046 14.6406 18V16Z" stroke="#6C7787" stroke-width="1.5" stroke-linecap="round" stroke-linejoin="round"/>
</svg>
