<svg width="416" height="396" viewBox="0 0 416 396" fill="none" xmlns="http://www.w3.org/2000/svg">
<rect width="416" height="396" rx="22" fill="url(#paint0_linear_3295_3808)"/>
<mask id="path-2-inside-1_3295_3808" fill="white">
<path d="M45 84C45 71.8497 54.8497 62 67 62H343C355.15 62 365 71.8497 365 84V396H45V84Z"/>
</mask>
<path d="M45 84C45 71.8497 54.8497 62 67 62H343C355.15 62 365 71.8497 365 84V396H45V84Z" fill="black"/>
<path d="M44 84C44 71.2975 54.2975 61 67 61H343C355.703 61 366 71.2975 366 84H364C364 72.402 354.598 63 343 63H67C55.402 63 46 72.402 46 84H44ZM365 396H45H365ZM44 396V84C44 71.2975 54.2975 61 67 61V63C55.402 63 46 72.402 46 84V396H44ZM343 61C355.703 61 366 71.2975 366 84V396H364V84C364 72.402 354.598 63 343 63V61Z" fill="black" mask="url(#path-2-inside-1_3295_3808)"/>
<mask id="path-4-inside-2_3295_3808" fill="white">
<path d="M41 84C41 71.8497 50.8497 62 63 62H339C351.15 62 361 71.8497 361 84V396H41V84Z"/>
</mask>
<path d="M41 84C41 71.8497 50.8497 62 63 62H339C351.15 62 361 71.8497 361 84V396H41V84Z" fill="white"/>
<path d="M40 84C40 71.2975 50.2975 61 63 61H339C351.703 61 362 71.2975 362 84H360C360 72.402 350.598 63 339 63H63C51.402 63 42 72.402 42 84H40ZM361 396H41H361ZM40 396V84C40 71.2975 50.2975 61 63 61V63C51.402 63 42 72.402 42 84V396H40ZM339 61C351.703 61 362 71.2975 362 84V396H360V84C360 72.402 350.598 63 339 63V61Z" fill="black" mask="url(#path-4-inside-2_3295_3808)"/>
<path d="M56 99C56 86.8497 65.8497 77 78 77H328C340.15 77 350 86.8497 350 99V396H56V99Z" fill="#F5F7F9"/>
<rect x="263" y="104" width="78" height="26" rx="13" fill="#2D4DE1"/>
<path d="M277.844 114.44V117.984C277.844 118.405 277.953 118.723 278.172 118.936C278.396 119.149 278.705 119.256 279.1 119.256C279.5 119.256 279.809 119.149 280.028 118.936C280.252 118.723 280.364 118.405 280.364 117.984V114.44H281.276V117.968C281.276 118.421 281.177 118.805 280.98 119.12C280.783 119.435 280.519 119.669 280.188 119.824C279.857 119.979 279.492 120.056 279.092 120.056C278.692 120.056 278.327 119.979 277.996 119.824C277.671 119.669 277.412 119.435 277.22 119.12C277.028 118.805 276.932 118.421 276.932 117.968V114.44H277.844ZM283.375 116.24C283.53 116.037 283.741 115.867 284.007 115.728C284.274 115.589 284.575 115.52 284.911 115.52C285.295 115.52 285.645 115.616 285.959 115.808C286.279 115.995 286.53 116.259 286.711 116.6C286.893 116.941 286.983 117.333 286.983 117.776C286.983 118.219 286.893 118.616 286.711 118.968C286.53 119.315 286.279 119.587 285.959 119.784C285.645 119.976 285.295 120.072 284.911 120.072C284.575 120.072 284.277 120.005 284.015 119.872C283.754 119.733 283.541 119.563 283.375 119.36V122.096H282.463V115.592H283.375V116.24ZM286.055 117.776C286.055 117.472 285.991 117.211 285.863 116.992C285.741 116.768 285.575 116.6 285.367 116.488C285.165 116.371 284.946 116.312 284.711 116.312C284.482 116.312 284.263 116.371 284.055 116.488C283.853 116.605 283.687 116.776 283.559 117C283.437 117.224 283.375 117.488 283.375 117.792C283.375 118.096 283.437 118.363 283.559 118.592C283.687 118.816 283.853 118.987 284.055 119.104C284.263 119.221 284.482 119.28 284.711 119.28C284.946 119.28 285.165 119.221 285.367 119.104C285.575 118.981 285.741 118.805 285.863 118.576C285.991 118.347 286.055 118.08 286.055 117.776ZM288.797 114.08V120H287.885V114.08H288.797ZM291.907 120.072C291.491 120.072 291.115 119.979 290.779 119.792C290.443 119.6 290.179 119.333 289.987 118.992C289.795 118.645 289.699 118.245 289.699 117.792C289.699 117.344 289.797 116.947 289.995 116.6C290.192 116.253 290.461 115.987 290.803 115.8C291.144 115.613 291.525 115.52 291.947 115.52C292.368 115.52 292.749 115.613 293.091 115.8C293.432 115.987 293.701 116.253 293.899 116.6C294.096 116.947 294.195 117.344 294.195 117.792C294.195 118.24 294.093 118.637 293.891 118.984C293.688 119.331 293.411 119.6 293.059 119.792C292.712 119.979 292.328 120.072 291.907 120.072ZM291.907 119.28C292.141 119.28 292.36 119.224 292.563 119.112C292.771 119 292.939 118.832 293.067 118.608C293.195 118.384 293.259 118.112 293.259 117.792C293.259 117.472 293.197 117.203 293.075 116.984C292.952 116.76 292.789 116.592 292.587 116.48C292.384 116.368 292.165 116.312 291.931 116.312C291.696 116.312 291.477 116.368 291.275 116.48C291.077 116.592 290.92 116.76 290.803 116.984C290.685 117.203 290.627 117.472 290.627 117.792C290.627 118.267 290.747 118.635 290.987 118.896C291.232 119.152 291.539 119.28 291.907 119.28ZM294.792 117.776C294.792 117.333 294.883 116.941 295.064 116.6C295.251 116.259 295.501 115.995 295.816 115.808C296.136 115.616 296.488 115.52 296.872 115.52C297.219 115.52 297.52 115.589 297.776 115.728C298.037 115.861 298.245 116.029 298.4 116.232V115.592H299.32V120H298.4V119.344C298.245 119.552 298.035 119.725 297.768 119.864C297.501 120.003 297.197 120.072 296.856 120.072C296.477 120.072 296.131 119.976 295.816 119.784C295.501 119.587 295.251 119.315 295.064 118.968C294.883 118.616 294.792 118.219 294.792 117.776ZM298.4 117.792C298.4 117.488 298.336 117.224 298.208 117C298.085 116.776 297.923 116.605 297.72 116.488C297.517 116.371 297.299 116.312 297.064 116.312C296.829 116.312 296.611 116.371 296.408 116.488C296.205 116.6 296.04 116.768 295.912 116.992C295.789 117.211 295.728 117.472 295.728 117.776C295.728 118.08 295.789 118.347 295.912 118.576C296.04 118.805 296.205 118.981 296.408 119.104C296.616 119.221 296.835 119.28 297.064 119.28C297.299 119.28 297.517 119.221 297.72 119.104C297.923 118.987 298.085 118.816 298.208 118.592C298.336 118.363 298.4 118.096 298.4 117.792ZM300.214 117.776C300.214 117.333 300.305 116.941 300.486 116.6C300.673 116.259 300.923 115.995 301.238 115.808C301.558 115.616 301.913 115.52 302.302 115.52C302.59 115.52 302.873 115.584 303.15 115.712C303.433 115.835 303.657 116 303.822 116.208V114.08H304.742V120H303.822V119.336C303.673 119.549 303.465 119.725 303.198 119.864C302.937 120.003 302.635 120.072 302.294 120.072C301.91 120.072 301.558 119.976 301.238 119.784C300.923 119.587 300.673 119.315 300.486 118.968C300.305 118.616 300.214 118.219 300.214 117.776ZM303.822 117.792C303.822 117.488 303.758 117.224 303.63 117C303.507 116.776 303.345 116.605 303.142 116.488C302.939 116.371 302.721 116.312 302.486 116.312C302.251 116.312 302.033 116.371 301.83 116.488C301.627 116.6 301.462 116.768 301.334 116.992C301.211 117.211 301.15 117.472 301.15 117.776C301.15 118.08 301.211 118.347 301.334 118.576C301.462 118.805 301.627 118.981 301.83 119.104C302.038 119.221 302.257 119.28 302.486 119.28C302.721 119.28 302.939 119.221 303.142 119.104C303.345 118.987 303.507 118.816 303.63 118.592C303.758 118.363 303.822 118.096 303.822 117.792ZM307.714 117.776C307.714 117.333 307.805 116.941 307.986 116.6C308.173 116.259 308.423 115.995 308.738 115.808C309.058 115.616 309.413 115.52 309.802 115.52C310.09 115.52 310.373 115.584 310.65 115.712C310.933 115.835 311.157 116 311.322 116.208V114.08H312.242V120H311.322V119.336C311.173 119.549 310.965 119.725 310.698 119.864C310.437 120.003 310.135 120.072 309.794 120.072C309.41 120.072 309.058 119.976 308.738 119.784C308.423 119.587 308.173 119.315 307.986 118.968C307.805 118.616 307.714 118.219 307.714 117.776ZM311.322 117.792C311.322 117.488 311.258 117.224 311.13 117C311.007 116.776 310.845 116.605 310.642 116.488C310.439 116.371 310.221 116.312 309.986 116.312C309.751 116.312 309.533 116.371 309.33 116.488C309.127 116.6 308.962 116.768 308.834 116.992C308.711 117.211 308.65 117.472 308.65 117.776C308.65 118.08 308.711 118.347 308.834 118.576C308.962 118.805 309.127 118.981 309.33 119.104C309.538 119.221 309.757 119.28 309.986 119.28C310.221 119.28 310.439 119.221 310.642 119.104C310.845 118.987 311.007 118.816 311.13 118.592C311.258 118.363 311.322 118.096 311.322 117.792ZM313.136 117.776C313.136 117.333 313.227 116.941 313.408 116.6C313.595 116.259 313.845 115.995 314.16 115.808C314.48 115.616 314.832 115.52 315.216 115.52C315.563 115.52 315.864 115.589 316.12 115.728C316.381 115.861 316.589 116.029 316.744 116.232V115.592H317.664V120H316.744V119.344C316.589 119.552 316.379 119.725 316.112 119.864C315.845 120.003 315.541 120.072 315.2 120.072C314.821 120.072 314.475 119.976 314.16 119.784C313.845 119.587 313.595 119.315 313.408 118.968C313.227 118.616 313.136 118.219 313.136 117.776ZM316.744 117.792C316.744 117.488 316.68 117.224 316.552 117C316.429 116.776 316.267 116.605 316.064 116.488C315.861 116.371 315.643 116.312 315.408 116.312C315.173 116.312 314.955 116.371 314.752 116.488C314.549 116.6 314.384 116.768 314.256 116.992C314.133 117.211 314.072 117.472 314.072 117.776C314.072 118.08 314.133 118.347 314.256 118.576C314.384 118.805 314.549 118.981 314.752 119.104C314.96 119.221 315.179 119.28 315.408 119.28C315.643 119.28 315.861 119.221 316.064 119.104C316.267 118.987 316.429 118.816 316.552 118.592C316.68 118.363 316.744 118.096 316.744 117.792ZM319.926 116.336V118.776C319.926 118.941 319.963 119.061 320.038 119.136C320.118 119.205 320.251 119.24 320.438 119.24H320.998V120H320.278C319.867 120 319.552 119.904 319.334 119.712C319.115 119.52 319.006 119.208 319.006 118.776V116.336H318.486V115.592H319.006V114.496H319.926V115.592H320.998V116.336H319.926ZM321.534 117.776C321.534 117.333 321.625 116.941 321.806 116.6C321.993 116.259 322.244 115.995 322.558 115.808C322.878 115.616 323.23 115.52 323.614 115.52C323.961 115.52 324.262 115.589 324.518 115.728C324.78 115.861 324.988 116.029 325.142 116.232V115.592H326.062V120H325.142V119.344C324.988 119.552 324.777 119.725 324.51 119.864C324.244 120.003 323.94 120.072 323.598 120.072C323.22 120.072 322.873 119.976 322.558 119.784C322.244 119.587 321.993 119.315 321.806 118.968C321.625 118.616 321.534 118.219 321.534 117.776ZM325.142 117.792C325.142 117.488 325.078 117.224 324.95 117C324.828 116.776 324.665 116.605 324.462 116.488C324.26 116.371 324.041 116.312 323.806 116.312C323.572 116.312 323.353 116.371 323.15 116.488C322.948 116.6 322.782 116.768 322.654 116.992C322.532 117.211 322.47 117.472 322.47 117.776C322.47 118.08 322.532 118.347 322.654 118.576C322.782 118.805 322.948 118.981 323.15 119.104C323.358 119.221 323.577 119.28 323.806 119.28C324.041 119.28 324.26 119.221 324.462 119.104C324.665 118.987 324.828 118.816 324.95 118.592C325.078 118.363 325.142 118.096 325.142 117.792Z" fill="white"/>
<path d="M303.222 275.623C292.334 266.335 279.208 210.327 234.245 239.498C211.014 254.569 171.842 226.56 139.419 236.234C109.643 245.119 106.772 274.392 109.653 283.931C115.473 303.198 97.3623 306.066 80.5614 314.344C54.2074 327.33 73.7382 373.451 98.6351 373.669C123.532 373.887 274.167 373.669 274.167 373.669C274.167 373.669 310.378 372.841 325.418 352.88C341.603 331.399 331.343 299.611 303.222 275.623Z" fill="#EBF2F9"/>
<path d="M155.18 368.499C155.18 368.499 155.495 373.585 156.479 373.658C156.61 373.668 161.47 373.668 161.47 373.668L167.674 373.632C167.674 373.632 167.633 372.137 165.82 371.821C164.006 371.505 160.971 370.231 159.872 367.834C158.717 365.313 155.18 368.499 155.18 368.499Z" fill="#163560"/>
<path d="M152.945 309.145C152.945 309.145 155.647 309.839 157.365 309.321C159.083 308.804 162.04 309.654 162.516 310.28C162.993 310.906 162.818 311.155 161.968 311.372C161.118 311.588 158.108 312.872 156.129 312.129C154.151 311.386 151.57 311.358 151.57 311.358L152.945 309.145Z" fill="#E49963"/>
<path d="M129.586 285.669C129.586 285.669 132.622 307.247 137.649 309.18C140.13 310.133 151.093 312.295 154.336 312.512C154.336 312.512 155.13 311.868 154.937 309.245C154.937 309.245 143.451 305.028 141.819 302.735C139.391 299.322 143.327 288.792 140.279 285.586C137.232 282.381 132.1 281.003 129.586 285.669Z" fill="#4A75CB"/>
<path d="M129.975 368.81V364.105H122.568C122.368 364.105 122.204 363.942 122.204 363.742V362.988C122.204 362.788 122.368 362.625 122.568 362.625H129.975V335.843C129.975 335.091 130.59 334.477 131.341 334.477H132.807C133.558 334.477 134.173 335.091 134.173 335.843V362.625H141.58C141.78 362.625 141.944 362.788 141.944 362.988V363.742C141.944 363.942 141.78 364.105 141.58 364.105H134.173V368.81C139.532 369.215 143.826 371.145 145.031 373.638H119.117C120.322 371.145 124.616 369.215 129.975 368.81Z" fill="#A6C7F9"/>
<path d="M130.611 331.131C131.496 332.633 132.521 334.041 133.576 335.374C136.839 339.494 140.392 342.89 141.01 346.101C141.133 346.741 141.329 347.43 141.584 348.156C141.842 348.891 142.162 349.665 142.531 350.464C143.915 353.472 145.986 356.842 148.054 359.906C151.628 365.202 154.988 369.621 154.988 369.621L161.152 369.358C160.905 368.74 158.217 361.428 154.621 352.491C153.16 348.864 151.608 345.005 150.109 341.284C149.91 340.787 149.71 340.292 149.513 339.802C149.055 338.663 148.604 337.542 148.164 336.45C144.787 328.059 142.098 321.377 142.098 321.377C142.098 321.377 128.602 316.265 127.2 319.578C126.045 322.309 126.986 324.985 130.611 331.131Z" fill="#E58638"/>
<path d="M140.907 353.969C140.907 353.969 136.62 356.724 137.036 357.618C137.092 357.737 139.461 361.98 139.461 361.98L142.516 367.38C142.516 367.38 143.802 366.615 143.194 364.878C142.586 363.141 142.219 359.869 143.776 357.742C145.414 355.503 140.907 353.969 140.907 353.969Z" fill="#163560"/>
<path d="M146.704 318.949C146.704 318.949 163.644 329.501 165.535 336.592C167.426 343.683 143.001 358.811 143.001 358.811C143.001 358.811 140.322 356.447 139.849 354.714C139.849 354.714 150.89 341.487 153.285 338.522C154.755 336.701 131.537 332.218 128.701 327.806C125.864 323.394 126.88 319.681 126.88 319.681L146.704 318.949Z" fill="#EE9849"/>
<path d="M114.737 332.5H149.407C150.1 332.5 150.667 333.067 150.667 333.761V340.694C150.667 341.388 150.1 341.955 149.407 341.955H114.737C114.044 341.955 113.477 341.388 113.477 340.694V333.761C113.477 333.067 114.044 332.5 114.737 332.5Z" fill="#1C468A"/>
<path d="M138.877 281.967C140.541 282.998 141.458 284.306 141.458 284.306C137.399 285.356 130.672 281.595 130.672 281.595C130.672 281.595 133.284 279.84 134.252 275.983C134.301 275.789 134.346 275.589 134.385 275.385C134.512 274.736 134.59 274.032 134.605 273.273L136.469 274.943L139.569 277.721C139.569 277.721 139.498 278.873 139.111 280.855C139.043 281.201 138.966 281.572 138.877 281.967Z" fill="#E49963"/>
<path d="M126.39 301.112C126.971 308.93 125.994 320.816 126.653 322.876C127.222 324.652 133.92 323.601 136.508 323.008C137.466 322.788 138.626 322.474 139.825 322.104C143.168 321.069 146.81 319.591 147.201 318.493C147.216 318.45 147.229 318.408 147.237 318.367C147.273 318.208 147.265 318.058 147.23 317.907C147.1 317.348 146.598 316.743 146.539 315.358C146.473 313.811 146.483 311.991 146.425 310.033C146.421 309.812 146.418 309.572 146.394 309.352L146.393 309.272C146.392 309.23 146.391 309.189 146.39 309.147C146.334 306.963 146.22 304.667 146.088 302.391C146.004 300.961 145.906 299.545 145.794 298.188C145.503 294.686 145.11 291.571 144.59 289.602C143.74 286.392 141.866 284.299 140.16 282.765L138.927 281.707C137.55 282.007 135.922 281.808 134.45 281.11C132.857 280.354 132.307 279.812 132.029 280.016C128.35 282.855 125.703 291.554 126.39 301.112Z" fill="#739AF0"/>
<path d="M139.803 322.121C143.146 321.086 146.789 319.608 147.179 318.511C147.195 318.468 147.207 318.426 147.215 318.385C147.213 318.231 147.212 318.078 147.208 317.925C147.078 317.365 146.576 316.76 146.517 315.375C146.451 313.829 146.461 312.008 146.403 310.05C146.4 309.83 146.397 309.589 146.373 309.37L146.372 309.29C146.371 309.248 146.37 309.207 146.369 309.164L133.741 303.438C133.741 303.438 133.014 313.615 139.803 322.121Z" fill="#4A75CB"/>
<path d="M139.566 277.722C139.566 277.722 139.496 278.875 139.108 280.857C136.081 279.879 134.708 277.145 134.25 275.985C134.119 275.658 134.062 275.455 134.062 275.455C134.062 275.455 134.18 275.43 134.382 275.387C134.808 275.296 135.609 275.127 136.466 274.945L139.566 277.722Z" fill="#D68D5D"/>
<path d="M140.794 277.69C140.794 277.69 134.144 278.44 133.74 274.291C133.337 270.143 132.207 267.445 136.436 266.791C140.665 266.137 141.645 267.639 142.117 268.991C142.588 270.343 142.513 277.388 140.794 277.69Z" fill="#E49963"/>
<path d="M133.764 274.579C133.764 274.579 134.186 269.072 140.239 268.501C144.386 268.111 142.074 264.542 141.632 263.973C141.632 263.973 138.455 264.408 135.199 264.946C128.364 266.075 133.093 273.721 133.764 274.579Z" fill="#2B478B"/>
<path d="M165.949 314.553L166.531 314.742L171.484 299.498L170.902 299.309L165.949 314.553Z" fill="#4A75CB"/>
<path d="M149.724 314.374L166.539 314.734L166.561 313.728L149.745 313.368L149.724 314.374Z" fill="#4A75CB"/>
<path d="M151.547 312.465C151.547 312.465 154.157 313.453 155.922 313.128C157.686 312.803 160.532 313.974 160.936 314.649C161.34 315.324 161.139 315.552 160.27 315.673C159.402 315.794 156.268 316.739 154.384 315.782C152.499 314.825 149.938 314.514 149.938 314.514L151.547 312.465Z" fill="#E49963"/>
<path d="M130.922 286.556C130.922 286.556 131.56 308.337 136.344 310.812C138.704 312.034 149.362 315.391 152.561 315.964C152.561 315.964 153.422 315.411 153.519 312.783C153.519 312.783 142.568 307.325 141.199 304.866C139.162 301.206 144.235 291.175 141.559 287.653C138.884 284.131 133.935 282.196 130.922 286.556Z" fill="#739AF0"/>
<path d="M191.879 338.577H278.655C284.711 338.577 289.62 333.668 289.62 327.612V208.965C289.62 202.909 284.711 198 278.655 198H191.879C185.823 198 180.914 202.909 180.914 208.965V327.612C180.914 333.668 185.823 338.577 191.879 338.577Z" fill="#D2E4FF"/>
<path d="M191.596 324.348H279.117V212.733H191.596V324.348Z" fill="#F3F9FF"/>
<path d="M266.704 319.448C264.153 319.448 262.086 317.38 262.086 314.83V250.985C262.086 248.435 264.153 246.367 266.704 246.367C269.254 246.367 271.321 248.435 271.321 250.985V314.83C271.321 317.38 269.254 319.448 266.704 319.448Z" fill="#EE9849"/>
<path d="M251.579 319.447C249.028 319.447 246.961 317.38 246.961 314.829V230.614C246.961 228.064 249.028 225.996 251.579 225.996C254.129 225.996 256.197 228.064 256.197 230.614V314.829C256.197 317.38 254.129 319.447 251.579 319.447Z" fill="#EE9849"/>
<path d="M235.063 319.447C232.513 319.447 230.445 317.379 230.445 314.829V268.657C230.445 266.107 232.513 264.039 235.063 264.039C237.613 264.039 239.681 266.107 239.681 268.657V314.829C239.681 317.379 237.613 319.447 235.063 319.447Z" fill="#EE9849"/>
<path d="M219.001 319.447C216.45 319.447 214.383 317.38 214.383 314.829V243.09C214.383 240.54 216.45 238.473 219.001 238.473C221.551 238.473 223.618 240.54 223.618 243.09V314.829C223.618 317.38 221.551 319.447 219.001 319.447Z" fill="#EE9849"/>
<path d="M207.47 279.501V314.828C207.47 317.378 205.402 319.446 202.852 319.446C200.302 319.446 198.234 317.378 198.234 314.828V279.501C198.234 276.95 200.302 274.883 202.852 274.883C205.402 274.883 207.47 276.95 207.47 279.501Z" fill="#EE9849"/>
<path d="M214.825 232.754H222.646C223.091 232.754 223.455 233.118 223.455 233.563C223.455 234.008 223.091 234.372 222.646 234.372H214.825C214.38 234.372 214.016 234.008 214.016 233.563C214.016 233.118 214.38 232.754 214.825 232.754Z" fill="#A6C7F9"/>
<path d="M220.864 235.699H222.645C223.09 235.699 223.454 236.063 223.454 236.508C223.454 236.953 223.09 237.317 222.645 237.317H220.864C220.419 237.317 220.055 236.953 220.055 236.508C220.055 236.063 220.419 235.699 220.864 235.699Z" fill="#A6C7F9"/>
<path d="M247.051 220.336H254.873C255.318 220.336 255.682 220.7 255.682 221.145C255.682 221.59 255.318 221.954 254.873 221.954H247.051C246.606 221.954 246.242 221.59 246.242 221.145C246.242 220.7 246.606 220.336 247.051 220.336Z" fill="#A6C7F9"/>
<path d="M253.09 223.281H254.872C255.317 223.281 255.681 223.645 255.681 224.09C255.681 224.535 255.317 224.899 254.872 224.899H253.09C252.645 224.899 252.281 224.535 252.281 224.09C252.281 223.645 252.645 223.281 253.09 223.281Z" fill="#A6C7F9"/>
<path d="M262.692 240.691H270.513C270.958 240.691 271.322 241.056 271.322 241.501C271.322 241.946 270.958 242.31 270.513 242.31H262.692C262.247 242.31 261.883 241.946 261.883 241.501C261.883 241.056 262.247 240.691 262.692 240.691Z" fill="#A6C7F9"/>
<path d="M268.731 243.637H270.512C270.957 243.637 271.321 244.001 271.321 244.446C271.321 244.891 270.957 245.255 270.512 245.255H268.731C268.286 245.255 267.922 244.891 267.922 244.446C267.922 244.001 268.286 243.637 268.731 243.637Z" fill="#A6C7F9"/>
<path d="M231.153 258.375H238.974C239.419 258.375 239.783 258.739 239.783 259.184C239.783 259.629 239.419 259.993 238.974 259.993H231.153C230.708 259.993 230.344 259.629 230.344 259.184C230.344 258.739 230.708 258.375 231.153 258.375Z" fill="#A6C7F9"/>
<path d="M237.192 261.316H238.973C239.418 261.316 239.782 261.681 239.782 262.126C239.782 262.571 239.418 262.935 238.973 262.935H237.192C236.747 262.935 236.383 262.571 236.383 262.126C236.383 261.68 236.747 261.316 237.192 261.316Z" fill="#A6C7F9"/>
<path d="M198.942 269.184H206.763C207.208 269.184 207.572 269.548 207.572 269.993C207.572 270.438 207.208 270.802 206.763 270.802H198.942C198.497 270.802 198.133 270.438 198.133 269.993C198.133 269.548 198.497 269.184 198.942 269.184Z" fill="#A6C7F9"/>
<path d="M204.981 272.133H206.762C207.207 272.133 207.571 272.497 207.571 272.942C207.571 273.387 207.207 273.751 206.762 273.751H204.981C204.536 273.751 204.172 273.387 204.172 272.942C204.172 272.497 204.536 272.133 204.981 272.133Z" fill="#A6C7F9"/>
<path d="M202.851 266.885C201.266 266.885 199.977 265.595 199.977 264.011C199.977 262.426 201.266 261.137 202.851 261.137C204.435 261.137 205.725 262.426 205.725 264.011C205.725 265.595 204.435 266.885 202.851 266.885ZM202.851 262.249C201.879 262.249 201.089 263.04 201.089 264.011C201.089 264.982 201.879 265.772 202.851 265.772C203.822 265.772 204.612 264.982 204.612 264.011C204.612 263.04 203.822 262.249 202.851 262.249Z" fill="#2B478B"/>
<path d="M201.63 262.248C201.488 262.248 201.346 262.194 201.237 262.086L192.6 253.448H122.431C122.124 253.448 121.875 253.199 121.875 252.892C121.875 252.585 122.124 252.336 122.431 252.336H193.061L202.024 261.299C202.241 261.516 202.241 261.868 202.024 262.086C201.915 262.194 201.773 262.248 201.63 262.248Z" fill="#2B478B"/>
<path d="M219.382 327.486C217.797 327.486 216.508 326.197 216.508 324.612C216.508 323.028 217.797 321.738 219.382 321.738C220.967 321.738 222.256 323.028 222.256 324.612C222.256 326.197 220.967 327.486 219.382 327.486ZM219.382 322.851C218.411 322.851 217.62 323.641 217.62 324.612C217.62 325.584 218.411 326.374 219.382 326.374C220.353 326.374 221.143 325.584 221.143 324.612C221.143 323.641 220.353 322.851 219.382 322.851Z" fill="#2B478B"/>
<path d="M298.69 336.287H229.173L220.21 327.325C219.993 327.107 219.993 326.755 220.21 326.538C220.427 326.321 220.779 326.321 220.996 326.538L229.633 335.175H298.69C298.997 335.175 299.246 335.424 299.246 335.731C299.246 336.038 298.997 336.287 298.69 336.287Z" fill="#2B478B"/>
<path d="M251.171 218.111C249.586 218.111 248.297 216.822 248.297 215.237C248.297 213.653 249.586 212.363 251.171 212.363C252.756 212.363 254.045 213.653 254.045 215.237C254.045 216.822 252.756 218.111 251.171 218.111ZM251.171 213.476C250.2 213.476 249.409 214.266 249.409 215.237C249.409 216.208 250.2 216.999 251.171 216.999C252.142 216.999 252.933 216.208 252.933 215.237C252.933 214.266 252.142 213.476 251.171 213.476Z" fill="#2B478B"/>
<path d="M249.951 213.475C249.808 213.475 249.666 213.421 249.557 213.312L240.92 204.675H170.752C170.444 204.675 170.195 204.426 170.195 204.119C170.195 203.812 170.444 203.562 170.752 203.562H241.381L250.344 212.525C250.561 212.743 250.561 213.095 250.344 213.312C250.235 213.421 250.093 213.475 249.951 213.475Z" fill="#2B478B"/>
<path d="M169.327 251.049H123.23C122.451 251.049 121.82 250.418 121.82 249.64C121.82 248.861 122.451 248.23 123.23 248.23H169.327C170.106 248.23 170.736 248.861 170.736 249.64C170.736 250.418 170.105 251.049 169.327 251.049Z" fill="#739AF0"/>
<path d="M169.323 246.6H141.026C140.248 246.6 139.617 245.969 139.617 245.191C139.617 244.412 140.248 243.781 141.026 243.781H169.323C170.102 243.781 170.733 244.412 170.733 245.191C170.732 245.969 170.101 246.6 169.323 246.6Z" fill="#739AF0"/>
<path d="M169.323 242.151H141.026C140.248 242.151 139.617 241.52 139.617 240.741C139.617 239.963 140.248 239.332 141.026 239.332H169.323C170.102 239.332 170.733 239.963 170.733 240.741C170.732 241.52 170.101 242.151 169.323 242.151Z" fill="#739AF0"/>
<path d="M217.327 201.987H171.23C170.451 201.987 169.82 201.356 169.82 200.577C169.82 199.799 170.451 199.168 171.23 199.168H217.327C218.105 199.168 218.736 199.799 218.736 200.577C218.736 201.356 218.105 201.987 217.327 201.987Z" fill="#739AF0"/>
<path d="M258.538 357.308C262.455 353.391 262.455 347.039 258.538 343.122C254.62 339.204 248.269 339.204 244.351 343.122C240.434 347.039 240.434 353.391 244.351 357.308C248.269 361.226 254.62 361.226 258.538 357.308Z" fill="#82B378"/>
<path d="M251.448 341.734C256.132 341.734 259.928 345.531 259.928 350.214C259.928 352.532 258.999 354.632 257.491 356.163L251.448 350.214L243.524 353.239C243.165 352.3 242.969 351.28 242.969 350.214C242.969 345.531 246.765 341.734 251.448 341.734Z" fill="white"/>
<path d="M252.687 345.906H256.297C256.439 345.906 256.555 346.022 256.555 346.164C256.555 346.306 256.439 346.422 256.297 346.422H252.687C252.546 346.422 252.43 346.306 252.43 346.164C252.43 346.022 252.546 345.906 252.687 345.906Z" fill="#82B378"/>
<path d="M252.687 346.723H256.297C256.439 346.723 256.555 346.839 256.555 346.98C256.555 347.122 256.439 347.238 256.297 347.238H252.687C252.546 347.238 252.43 347.122 252.43 346.98C252.43 346.839 252.546 346.723 252.687 346.723Z" fill="#82B378"/>
<path d="M254.805 347.539H256.295C256.437 347.539 256.553 347.655 256.553 347.797C256.553 347.939 256.437 348.055 256.295 348.055H254.805C254.663 348.055 254.547 347.939 254.547 347.797C254.547 347.655 254.663 347.539 254.805 347.539Z" fill="#82B378"/>
<path d="M242.664 345.507L246.632 341.539H242.664V345.507Z" fill="#82B378"/>
<path d="M295.343 350.698C295.619 345.165 291.357 340.455 285.823 340.179C280.29 339.903 275.58 344.166 275.304 349.699C275.028 355.233 279.291 359.942 284.824 360.218C290.358 360.494 295.067 356.232 295.343 350.698Z" fill="#82B378"/>
<path d="M276.844 350.211C276.844 345.527 280.64 341.73 285.323 341.73C290.007 341.73 293.803 345.527 293.803 350.211C293.803 354.894 290.007 358.691 285.323 358.691C283.388 358.691 281.606 358.043 280.18 356.953L285.323 350.211L277.399 353.235C277.04 352.296 276.844 351.276 276.844 350.211Z" fill="white"/>
<path d="M286.625 345.906H290.235C290.376 345.906 290.492 346.022 290.492 346.164C290.492 346.306 290.376 346.422 290.235 346.422H286.625C286.483 346.422 286.367 346.306 286.367 346.164C286.367 346.022 286.483 345.906 286.625 345.906Z" fill="#82B378"/>
<path d="M286.625 346.723H290.235C290.376 346.723 290.492 346.839 290.492 346.98C290.492 347.122 290.376 347.238 290.235 347.238H286.625C286.483 347.238 286.367 347.122 286.367 346.98C286.367 346.839 286.483 346.723 286.625 346.723Z" fill="#82B378"/>
<path d="M288.742 347.539H290.233C290.374 347.539 290.491 347.655 290.491 347.797C290.491 347.939 290.374 348.055 290.233 348.055H288.742C288.6 348.055 288.484 347.939 288.484 347.797C288.484 347.655 288.6 347.539 288.742 347.539Z" fill="#82B378"/>
<path d="M276.594 345.503L280.562 341.535H276.594V345.503Z" fill="#82B378"/>
<path d="M322.046 374.001H90.1217C89.9388 374.001 89.7891 373.851 89.7891 373.669C89.7891 373.486 89.9388 373.336 90.1217 373.336H322.046C322.229 373.336 322.378 373.486 322.378 373.669C322.378 373.851 322.229 374.001 322.046 374.001Z" fill="#202F4E"/>
<circle cx="92.5" cy="117.5" r="20.5" fill="#E7E9EF"/>
<ellipse cx="92.5" cy="124" rx="13.5" ry="7" fill="white"/>
<circle cx="92.5" cy="108.5" r="6.5" fill="white"/>
<defs>
<linearGradient id="paint0_linear_3295_3808" x1="331.5" y1="1.97305e-06" x2="21" y2="396" gradientUnits="userSpaceOnUse">
<stop stop-color="#EBF4FF"/>
<stop offset="0.47" stop-color="#AEE7FD"/>
<stop offset="1" stop-color="#ACB7FE"/>
</linearGradient>
</defs>
</svg>
