<svg width="214" height="114" viewBox="0 0 214 114" fill="none" xmlns="http://www.w3.org/2000/svg">
<path fill-rule="evenodd" clip-rule="evenodd" d="M102.5 3.15117C102.5 4.65636 101.157 5.87656 99.5 5.87656C97.8431 5.87656 96.5 4.65636 96.5 3.15117C96.5 1.64598 97.8431 0.425781 99.5 0.425781C101.157 0.425781 102.5 1.64598 102.5 3.15117ZM99.5 21.3219C101.157 21.3219 102.5 20.1017 102.5 18.5965C102.5 17.0913 101.157 15.8711 99.5 15.8711C97.8431 15.8711 96.5 17.0913 96.5 18.5965C96.5 20.1017 97.8431 21.3219 99.5 21.3219ZM102.5 34.0379C102.5 35.5431 101.157 36.7633 99.5 36.7633C97.8431 36.7633 96.5 35.5431 96.5 34.0379C96.5 32.5327 97.8431 31.3125 99.5 31.3125C101.157 31.3125 102.5 32.5327 102.5 34.0379ZM99.5 52.2086C101.157 52.2086 102.5 50.9884 102.5 49.4832C102.5 47.978 101.157 46.7578 99.5 46.7578C97.8431 46.7578 96.5 47.978 96.5 49.4832C96.5 50.9884 97.8431 52.2086 99.5 52.2086ZM102.5 64.9246C102.5 66.4298 101.157 67.65 99.5 67.65C97.8431 67.65 96.5 66.4298 96.5 64.9246C96.5 63.4194 97.8431 62.1992 99.5 62.1992C101.157 62.1992 102.5 63.4194 102.5 64.9246ZM99.5 83.0952C101.157 83.0952 102.5 81.875 102.5 80.3698C102.5 78.8646 101.157 77.6444 99.5 77.6444C97.8431 77.6444 96.5 78.8646 96.5 80.3698C96.5 81.875 97.8431 83.0952 99.5 83.0952ZM102.5 95.8152C102.5 97.3204 101.157 98.5406 99.5 98.5406C97.8431 98.5406 96.5 97.3204 96.5 95.8152C96.5 94.31 97.8431 93.0898 99.5 93.0898C101.157 93.0898 102.5 94.31 102.5 95.8152ZM3.5 113.982C5.15685 113.982 6.5 112.762 6.5 111.257C6.5 109.751 5.15685 108.531 3.5 108.531C1.84315 108.531 0.5 109.751 0.5 111.257C0.5 112.762 1.84315 113.982 3.5 113.982ZM22.5 111.257C22.5 112.762 21.1569 113.982 19.5 113.982C17.8431 113.982 16.5 112.762 16.5 111.257C16.5 109.751 17.8431 108.531 19.5 108.531C21.1569 108.531 22.5 109.751 22.5 111.257ZM35.5 113.982C37.1569 113.982 38.5 112.762 38.5 111.257C38.5 109.751 37.1569 108.531 35.5 108.531C33.8431 108.531 32.5 109.751 32.5 111.257C32.5 112.762 33.8431 113.982 35.5 113.982ZM54.5 111.257C54.5 112.762 53.1569 113.982 51.5 113.982C49.8431 113.982 48.5 112.762 48.5 111.257C48.5 109.751 49.8431 108.531 51.5 108.531C53.1569 108.531 54.5 109.751 54.5 111.257ZM67.5 113.982C69.1569 113.982 70.5 112.762 70.5 111.257C70.5 109.751 69.1569 108.531 67.5 108.531C65.8431 108.531 64.5 109.751 64.5 111.257C64.5 112.762 65.8431 113.982 67.5 113.982ZM86.5 111.257C86.5 112.762 85.1569 113.982 83.5 113.982C81.8431 113.982 80.5 112.762 80.5 111.257C80.5 109.751 81.8431 108.531 83.5 108.531C85.1569 108.531 86.5 109.751 86.5 111.257ZM102.5 111.257C102.5 112.762 101.157 113.982 99.5 113.982C97.8431 113.982 96.5 112.762 96.5 111.257C96.5 109.751 97.8431 108.531 99.5 108.531C101.157 108.531 102.5 109.751 102.5 111.257ZM83.5 98.5406C85.1569 98.5406 86.5 97.3204 86.5 95.8152C86.5 94.31 85.1569 93.0898 83.5 93.0898C81.8431 93.0898 80.5 94.31 80.5 95.8152C80.5 97.3204 81.8431 98.5406 83.5 98.5406ZM70.5 95.8152C70.5 97.3204 69.1569 98.5406 67.5 98.5406C65.8431 98.5406 64.5 97.3204 64.5 95.8152C64.5 94.31 65.8431 93.0898 67.5 93.0898C69.1569 93.0898 70.5 94.31 70.5 95.8152ZM51.5 98.5406C53.1569 98.5406 54.5 97.3204 54.5 95.8152C54.5 94.31 53.1569 93.0898 51.5 93.0898C49.8431 93.0898 48.5 94.31 48.5 95.8152C48.5 97.3204 49.8431 98.5406 51.5 98.5406ZM38.5 95.8152C38.5 97.3204 37.1569 98.5406 35.5 98.5406C33.8431 98.5406 32.5 97.3204 32.5 95.8152C32.5 94.31 33.8431 93.0898 35.5 93.0898C37.1569 93.0898 38.5 94.31 38.5 95.8152ZM19.5 98.5406C21.1569 98.5406 22.5 97.3204 22.5 95.8152C22.5 94.31 21.1569 93.0898 19.5 93.0898C17.8431 93.0898 16.5 94.31 16.5 95.8152C16.5 97.3204 17.8431 98.5406 19.5 98.5406ZM6.5 95.8152C6.5 97.3204 5.15685 98.5406 3.5 98.5406C1.84315 98.5406 0.5 97.3204 0.5 95.8152C0.5 94.31 1.84315 93.0898 3.5 93.0898C5.15685 93.0898 6.5 94.31 6.5 95.8152ZM86.5 80.3698C86.5 81.875 85.1569 83.0952 83.5 83.0952C81.8431 83.0952 80.5 81.875 80.5 80.3698C80.5 78.8646 81.8431 77.6444 83.5 77.6444C85.1569 77.6444 86.5 78.8646 86.5 80.3698ZM67.5 83.0952C69.1569 83.0952 70.5 81.875 70.5 80.3698C70.5 78.8646 69.1569 77.6444 67.5 77.6444C65.8431 77.6444 64.5 78.8646 64.5 80.3698C64.5 81.875 65.8431 83.0952 67.5 83.0952ZM54.5 80.3698C54.5 81.875 53.1569 83.0952 51.5 83.0952C49.8431 83.0952 48.5 81.875 48.5 80.3698C48.5 78.8646 49.8431 77.6444 51.5 77.6444C53.1569 77.6444 54.5 78.8646 54.5 80.3698ZM35.5 83.0952C37.1569 83.0952 38.5 81.875 38.5 80.3698C38.5 78.8646 37.1569 77.6444 35.5 77.6444C33.8431 77.6444 32.5 78.8646 32.5 80.3698C32.5 81.875 33.8431 83.0952 35.5 83.0952ZM22.5 80.3698C22.5 81.875 21.1569 83.0952 19.5 83.0952C17.8431 83.0952 16.5 81.875 16.5 80.3698C16.5 78.8646 17.8431 77.6444 19.5 77.6444C21.1569 77.6444 22.5 78.8646 22.5 80.3698ZM3.5 83.0952C5.15685 83.0952 6.5 81.875 6.5 80.3698C6.5 78.8646 5.15685 77.6444 3.5 77.6444C1.84315 77.6444 0.5 78.8646 0.5 80.3698C0.5 81.875 1.84315 83.0952 3.5 83.0952ZM83.5 67.65C85.1569 67.65 86.5 66.4298 86.5 64.9246C86.5 63.4194 85.1569 62.1992 83.5 62.1992C81.8431 62.1992 80.5 63.4194 80.5 64.9246C80.5 66.4298 81.8431 67.65 83.5 67.65ZM70.5 64.9246C70.5 66.4298 69.1569 67.65 67.5 67.65C65.8431 67.65 64.5 66.4298 64.5 64.9246C64.5 63.4194 65.8431 62.1992 67.5 62.1992C69.1569 62.1992 70.5 63.4194 70.5 64.9246ZM51.5 67.65C53.1569 67.65 54.5 66.4298 54.5 64.9246C54.5 63.4194 53.1569 62.1992 51.5 62.1992C49.8431 62.1992 48.5 63.4194 48.5 64.9246C48.5 66.4298 49.8431 67.65 51.5 67.65ZM38.5 64.9246C38.5 66.4298 37.1569 67.65 35.5 67.65C33.8431 67.65 32.5 66.4298 32.5 64.9246C32.5 63.4194 33.8431 62.1992 35.5 62.1992C37.1569 62.1992 38.5 63.4194 38.5 64.9246ZM19.5 67.65C21.1569 67.65 22.5 66.4298 22.5 64.9246C22.5 63.4194 21.1569 62.1992 19.5 62.1992C17.8431 62.1992 16.5 63.4194 16.5 64.9246C16.5 66.4298 17.8431 67.65 19.5 67.65ZM6.5 64.9246C6.5 66.4298 5.15685 67.65 3.5 67.65C1.84315 67.65 0.5 66.4298 0.5 64.9246C0.5 63.4194 1.84315 62.1992 3.5 62.1992C5.15685 62.1992 6.5 63.4194 6.5 64.9246ZM86.5 49.4832C86.5 50.9884 85.1569 52.2086 83.5 52.2086C81.8431 52.2086 80.5 50.9884 80.5 49.4832C80.5 47.978 81.8431 46.7578 83.5 46.7578C85.1569 46.7578 86.5 47.978 86.5 49.4832ZM67.5 52.2086C69.1569 52.2086 70.5 50.9884 70.5 49.4832C70.5 47.978 69.1569 46.7578 67.5 46.7578C65.8431 46.7578 64.5 47.978 64.5 49.4832C64.5 50.9884 65.8431 52.2086 67.5 52.2086ZM54.5 49.4832C54.5 50.9884 53.1569 52.2086 51.5 52.2086C49.8431 52.2086 48.5 50.9884 48.5 49.4832C48.5 47.978 49.8431 46.7578 51.5 46.7578C53.1569 46.7578 54.5 47.978 54.5 49.4832ZM35.5 52.2086C37.1569 52.2086 38.5 50.9884 38.5 49.4832C38.5 47.978 37.1569 46.7578 35.5 46.7578C33.8431 46.7578 32.5 47.978 32.5 49.4832C32.5 50.9884 33.8431 52.2086 35.5 52.2086ZM22.5 49.4832C22.5 50.9884 21.1569 52.2086 19.5 52.2086C17.8431 52.2086 16.5 50.9884 16.5 49.4832C16.5 47.978 17.8431 46.7578 19.5 46.7578C21.1569 46.7578 22.5 47.978 22.5 49.4832ZM3.5 52.2086C5.15685 52.2086 6.5 50.9884 6.5 49.4832C6.5 47.978 5.15685 46.7578 3.5 46.7578C1.84315 46.7578 0.5 47.978 0.5 49.4832C0.5 50.9884 1.84315 52.2086 3.5 52.2086ZM83.5 36.7633C85.1569 36.7633 86.5 35.5431 86.5 34.0379C86.5 32.5327 85.1569 31.3125 83.5 31.3125C81.8431 31.3125 80.5 32.5327 80.5 34.0379C80.5 35.5431 81.8431 36.7633 83.5 36.7633ZM70.5 34.0379C70.5 35.5431 69.1569 36.7633 67.5 36.7633C65.8431 36.7633 64.5 35.5431 64.5 34.0379C64.5 32.5327 65.8431 31.3125 67.5 31.3125C69.1569 31.3125 70.5 32.5327 70.5 34.0379ZM51.5 36.7633C53.1569 36.7633 54.5 35.5431 54.5 34.0379C54.5 32.5327 53.1569 31.3125 51.5 31.3125C49.8431 31.3125 48.5 32.5327 48.5 34.0379C48.5 35.5431 49.8431 36.7633 51.5 36.7633ZM38.5 34.0379C38.5 35.5431 37.1569 36.7633 35.5 36.7633C33.8431 36.7633 32.5 35.5431 32.5 34.0379C32.5 32.5327 33.8431 31.3125 35.5 31.3125C37.1569 31.3125 38.5 32.5327 38.5 34.0379ZM19.5 36.7633C21.1569 36.7633 22.5 35.5431 22.5 34.0379C22.5 32.5327 21.1569 31.3125 19.5 31.3125C17.8431 31.3125 16.5 32.5327 16.5 34.0379C16.5 35.5431 17.8431 36.7633 19.5 36.7633ZM6.5 34.0379C6.5 35.5431 5.15685 36.7633 3.5 36.7633C1.84315 36.7633 0.5 35.5431 0.5 34.0379C0.5 32.5327 1.84315 31.3125 3.5 31.3125C5.15685 31.3125 6.5 32.5327 6.5 34.0379ZM86.5 18.5965C86.5 20.1017 85.1569 21.3219 83.5 21.3219C81.8431 21.3219 80.5 20.1017 80.5 18.5965C80.5 17.0913 81.8431 15.8711 83.5 15.8711C85.1569 15.8711 86.5 17.0913 86.5 18.5965ZM67.5 21.3219C69.1569 21.3219 70.5 20.1017 70.5 18.5965C70.5 17.0913 69.1569 15.8711 67.5 15.8711C65.8431 15.8711 64.5 17.0913 64.5 18.5965C64.5 20.1017 65.8431 21.3219 67.5 21.3219ZM54.5 18.5965C54.5 20.1017 53.1569 21.3219 51.5 21.3219C49.8431 21.3219 48.5 20.1017 48.5 18.5965C48.5 17.0913 49.8431 15.8711 51.5 15.8711C53.1569 15.8711 54.5 17.0913 54.5 18.5965ZM35.5 21.3219C37.1569 21.3219 38.5 20.1017 38.5 18.5965C38.5 17.0913 37.1569 15.8711 35.5 15.8711C33.8431 15.8711 32.5 17.0913 32.5 18.5965C32.5 20.1017 33.8431 21.3219 35.5 21.3219ZM22.5 18.5965C22.5 20.1017 21.1569 21.3219 19.5 21.3219C17.8431 21.3219 16.5 20.1017 16.5 18.5965C16.5 17.0913 17.8431 15.8711 19.5 15.8711C21.1569 15.8711 22.5 17.0913 22.5 18.5965ZM3.5 21.3219C5.15685 21.3219 6.5 20.1017 6.5 18.5965C6.5 17.0913 5.15685 15.8711 3.5 15.8711C1.84315 15.8711 0.5 17.0913 0.5 18.5965C0.5 20.1017 1.84315 21.3219 3.5 21.3219ZM83.5 5.87656C85.1569 5.87656 86.5 4.65636 86.5 3.15117C86.5 1.64598 85.1569 0.425781 83.5 0.425781C81.8431 0.425781 80.5 1.64598 80.5 3.15117C80.5 4.65636 81.8431 5.87656 83.5 5.87656ZM70.5 3.15117C70.5 4.65636 69.1569 5.87656 67.5 5.87656C65.8431 5.87656 64.5 4.65636 64.5 3.15117C64.5 1.64598 65.8431 0.425781 67.5 0.425781C69.1569 0.425781 70.5 1.64598 70.5 3.15117ZM51.5 5.87656C53.1569 5.87656 54.5 4.65636 54.5 3.15117C54.5 1.64598 53.1569 0.425781 51.5 0.425781C49.8431 0.425781 48.5 1.64598 48.5 3.15117C48.5 4.65636 49.8431 5.87656 51.5 5.87656ZM38.5 3.15117C38.5 4.65636 37.1569 5.87656 35.5 5.87656C33.8431 5.87656 32.5 4.65636 32.5 3.15117C32.5 1.64598 33.8431 0.425781 35.5 0.425781C37.1569 0.425781 38.5 1.64598 38.5 3.15117ZM19.5 5.87656C21.1569 5.87656 22.5 4.65636 22.5 3.15117C22.5 1.64598 21.1569 0.425781 19.5 0.425781C17.8431 0.425781 16.5 1.64598 16.5 3.15117C16.5 4.65636 17.8431 5.87656 19.5 5.87656ZM6.5 3.15117C6.5 4.65636 5.15685 5.87656 3.5 5.87656C1.84315 5.87656 0.5 4.65636 0.5 3.15117C0.5 1.64598 1.84315 0.425781 3.5 0.425781C5.15685 0.425781 6.5 1.64598 6.5 3.15117Z" fill="#1350FA" fill-opacity="0.37"/>
<path fill-rule="evenodd" clip-rule="evenodd" d="M213.5 3.15117C213.5 4.65636 212.157 5.87656 210.5 5.87656C208.843 5.87656 207.5 4.65636 207.5 3.15117C207.5 1.64598 208.843 0.425781 210.5 0.425781C212.157 0.425781 213.5 1.64598 213.5 3.15117ZM210.5 21.3219C212.157 21.3219 213.5 20.1017 213.5 18.5965C213.5 17.0913 212.157 15.8711 210.5 15.8711C208.843 15.8711 207.5 17.0913 207.5 18.5965C207.5 20.1017 208.843 21.3219 210.5 21.3219ZM213.5 34.0379C213.5 35.5431 212.157 36.7633 210.5 36.7633C208.843 36.7633 207.5 35.5431 207.5 34.0379C207.5 32.5327 208.843 31.3125 210.5 31.3125C212.157 31.3125 213.5 32.5327 213.5 34.0379ZM210.5 52.2086C212.157 52.2086 213.5 50.9884 213.5 49.4832C213.5 47.978 212.157 46.7578 210.5 46.7578C208.843 46.7578 207.5 47.978 207.5 49.4832C207.5 50.9884 208.843 52.2086 210.5 52.2086ZM213.5 64.9246C213.5 66.4298 212.157 67.65 210.5 67.65C208.843 67.65 207.5 66.4298 207.5 64.9246C207.5 63.4194 208.843 62.1992 210.5 62.1992C212.157 62.1992 213.5 63.4194 213.5 64.9246ZM210.5 83.0952C212.157 83.0952 213.5 81.875 213.5 80.3698C213.5 78.8646 212.157 77.6444 210.5 77.6444C208.843 77.6444 207.5 78.8646 207.5 80.3698C207.5 81.875 208.843 83.0952 210.5 83.0952ZM213.5 95.8152C213.5 97.3204 212.157 98.5406 210.5 98.5406C208.843 98.5406 207.5 97.3204 207.5 95.8152C207.5 94.31 208.843 93.0898 210.5 93.0898C212.157 93.0898 213.5 94.31 213.5 95.8152ZM114.5 113.982C116.157 113.982 117.5 112.762 117.5 111.257C117.5 109.751 116.157 108.531 114.5 108.531C112.843 108.531 111.5 109.751 111.5 111.257C111.5 112.762 112.843 113.982 114.5 113.982ZM133.5 111.257C133.5 112.762 132.157 113.982 130.5 113.982C128.843 113.982 127.5 112.762 127.5 111.257C127.5 109.751 128.843 108.531 130.5 108.531C132.157 108.531 133.5 109.751 133.5 111.257ZM146.5 113.982C148.157 113.982 149.5 112.762 149.5 111.257C149.5 109.751 148.157 108.531 146.5 108.531C144.843 108.531 143.5 109.751 143.5 111.257C143.5 112.762 144.843 113.982 146.5 113.982ZM165.5 111.257C165.5 112.762 164.157 113.982 162.5 113.982C160.843 113.982 159.5 112.762 159.5 111.257C159.5 109.751 160.843 108.531 162.5 108.531C164.157 108.531 165.5 109.751 165.5 111.257ZM178.5 113.982C180.157 113.982 181.5 112.762 181.5 111.257C181.5 109.751 180.157 108.531 178.5 108.531C176.843 108.531 175.5 109.751 175.5 111.257C175.5 112.762 176.843 113.982 178.5 113.982ZM197.5 111.257C197.5 112.762 196.157 113.982 194.5 113.982C192.843 113.982 191.5 112.762 191.5 111.257C191.5 109.751 192.843 108.531 194.5 108.531C196.157 108.531 197.5 109.751 197.5 111.257ZM213.5 111.257C213.5 112.762 212.157 113.982 210.5 113.982C208.843 113.982 207.5 112.762 207.5 111.257C207.5 109.751 208.843 108.531 210.5 108.531C212.157 108.531 213.5 109.751 213.5 111.257ZM194.5 98.5406C196.157 98.5406 197.5 97.3204 197.5 95.8152C197.5 94.31 196.157 93.0898 194.5 93.0898C192.843 93.0898 191.5 94.31 191.5 95.8152C191.5 97.3204 192.843 98.5406 194.5 98.5406ZM181.5 95.8152C181.5 97.3204 180.157 98.5406 178.5 98.5406C176.843 98.5406 175.5 97.3204 175.5 95.8152C175.5 94.31 176.843 93.0898 178.5 93.0898C180.157 93.0898 181.5 94.31 181.5 95.8152ZM162.5 98.5406C164.157 98.5406 165.5 97.3204 165.5 95.8152C165.5 94.31 164.157 93.0898 162.5 93.0898C160.843 93.0898 159.5 94.31 159.5 95.8152C159.5 97.3204 160.843 98.5406 162.5 98.5406ZM149.5 95.8152C149.5 97.3204 148.157 98.5406 146.5 98.5406C144.843 98.5406 143.5 97.3204 143.5 95.8152C143.5 94.31 144.843 93.0898 146.5 93.0898C148.157 93.0898 149.5 94.31 149.5 95.8152ZM130.5 98.5406C132.157 98.5406 133.5 97.3204 133.5 95.8152C133.5 94.31 132.157 93.0898 130.5 93.0898C128.843 93.0898 127.5 94.31 127.5 95.8152C127.5 97.3204 128.843 98.5406 130.5 98.5406ZM117.5 95.8152C117.5 97.3204 116.157 98.5406 114.5 98.5406C112.843 98.5406 111.5 97.3204 111.5 95.8152C111.5 94.31 112.843 93.0898 114.5 93.0898C116.157 93.0898 117.5 94.31 117.5 95.8152ZM197.5 80.3698C197.5 81.875 196.157 83.0952 194.5 83.0952C192.843 83.0952 191.5 81.875 191.5 80.3698C191.5 78.8646 192.843 77.6444 194.5 77.6444C196.157 77.6444 197.5 78.8646 197.5 80.3698ZM178.5 83.0952C180.157 83.0952 181.5 81.875 181.5 80.3698C181.5 78.8646 180.157 77.6444 178.5 77.6444C176.843 77.6444 175.5 78.8646 175.5 80.3698C175.5 81.875 176.843 83.0952 178.5 83.0952ZM165.5 80.3698C165.5 81.875 164.157 83.0952 162.5 83.0952C160.843 83.0952 159.5 81.875 159.5 80.3698C159.5 78.8646 160.843 77.6444 162.5 77.6444C164.157 77.6444 165.5 78.8646 165.5 80.3698ZM146.5 83.0952C148.157 83.0952 149.5 81.875 149.5 80.3698C149.5 78.8646 148.157 77.6444 146.5 77.6444C144.843 77.6444 143.5 78.8646 143.5 80.3698C143.5 81.875 144.843 83.0952 146.5 83.0952ZM133.5 80.3698C133.5 81.875 132.157 83.0952 130.5 83.0952C128.843 83.0952 127.5 81.875 127.5 80.3698C127.5 78.8646 128.843 77.6444 130.5 77.6444C132.157 77.6444 133.5 78.8646 133.5 80.3698ZM114.5 83.0952C116.157 83.0952 117.5 81.875 117.5 80.3698C117.5 78.8646 116.157 77.6444 114.5 77.6444C112.843 77.6444 111.5 78.8646 111.5 80.3698C111.5 81.875 112.843 83.0952 114.5 83.0952ZM194.5 67.65C196.157 67.65 197.5 66.4298 197.5 64.9246C197.5 63.4194 196.157 62.1992 194.5 62.1992C192.843 62.1992 191.5 63.4194 191.5 64.9246C191.5 66.4298 192.843 67.65 194.5 67.65ZM181.5 64.9246C181.5 66.4298 180.157 67.65 178.5 67.65C176.843 67.65 175.5 66.4298 175.5 64.9246C175.5 63.4194 176.843 62.1992 178.5 62.1992C180.157 62.1992 181.5 63.4194 181.5 64.9246ZM162.5 67.65C164.157 67.65 165.5 66.4298 165.5 64.9246C165.5 63.4194 164.157 62.1992 162.5 62.1992C160.843 62.1992 159.5 63.4194 159.5 64.9246C159.5 66.4298 160.843 67.65 162.5 67.65ZM149.5 64.9246C149.5 66.4298 148.157 67.65 146.5 67.65C144.843 67.65 143.5 66.4298 143.5 64.9246C143.5 63.4194 144.843 62.1992 146.5 62.1992C148.157 62.1992 149.5 63.4194 149.5 64.9246ZM130.5 67.65C132.157 67.65 133.5 66.4298 133.5 64.9246C133.5 63.4194 132.157 62.1992 130.5 62.1992C128.843 62.1992 127.5 63.4194 127.5 64.9246C127.5 66.4298 128.843 67.65 130.5 67.65ZM117.5 64.9246C117.5 66.4298 116.157 67.65 114.5 67.65C112.843 67.65 111.5 66.4298 111.5 64.9246C111.5 63.4194 112.843 62.1992 114.5 62.1992C116.157 62.1992 117.5 63.4194 117.5 64.9246ZM197.5 49.4832C197.5 50.9884 196.157 52.2086 194.5 52.2086C192.843 52.2086 191.5 50.9884 191.5 49.4832C191.5 47.978 192.843 46.7578 194.5 46.7578C196.157 46.7578 197.5 47.978 197.5 49.4832ZM178.5 52.2086C180.157 52.2086 181.5 50.9884 181.5 49.4832C181.5 47.978 180.157 46.7578 178.5 46.7578C176.843 46.7578 175.5 47.978 175.5 49.4832C175.5 50.9884 176.843 52.2086 178.5 52.2086ZM165.5 49.4832C165.5 50.9884 164.157 52.2086 162.5 52.2086C160.843 52.2086 159.5 50.9884 159.5 49.4832C159.5 47.978 160.843 46.7578 162.5 46.7578C164.157 46.7578 165.5 47.978 165.5 49.4832ZM146.5 52.2086C148.157 52.2086 149.5 50.9884 149.5 49.4832C149.5 47.978 148.157 46.7578 146.5 46.7578C144.843 46.7578 143.5 47.978 143.5 49.4832C143.5 50.9884 144.843 52.2086 146.5 52.2086ZM133.5 49.4832C133.5 50.9884 132.157 52.2086 130.5 52.2086C128.843 52.2086 127.5 50.9884 127.5 49.4832C127.5 47.978 128.843 46.7578 130.5 46.7578C132.157 46.7578 133.5 47.978 133.5 49.4832ZM114.5 52.2086C116.157 52.2086 117.5 50.9884 117.5 49.4832C117.5 47.978 116.157 46.7578 114.5 46.7578C112.843 46.7578 111.5 47.978 111.5 49.4832C111.5 50.9884 112.843 52.2086 114.5 52.2086ZM194.5 36.7633C196.157 36.7633 197.5 35.5431 197.5 34.0379C197.5 32.5327 196.157 31.3125 194.5 31.3125C192.843 31.3125 191.5 32.5327 191.5 34.0379C191.5 35.5431 192.843 36.7633 194.5 36.7633ZM181.5 34.0379C181.5 35.5431 180.157 36.7633 178.5 36.7633C176.843 36.7633 175.5 35.5431 175.5 34.0379C175.5 32.5327 176.843 31.3125 178.5 31.3125C180.157 31.3125 181.5 32.5327 181.5 34.0379ZM162.5 36.7633C164.157 36.7633 165.5 35.5431 165.5 34.0379C165.5 32.5327 164.157 31.3125 162.5 31.3125C160.843 31.3125 159.5 32.5327 159.5 34.0379C159.5 35.5431 160.843 36.7633 162.5 36.7633ZM149.5 34.0379C149.5 35.5431 148.157 36.7633 146.5 36.7633C144.843 36.7633 143.5 35.5431 143.5 34.0379C143.5 32.5327 144.843 31.3125 146.5 31.3125C148.157 31.3125 149.5 32.5327 149.5 34.0379ZM130.5 36.7633C132.157 36.7633 133.5 35.5431 133.5 34.0379C133.5 32.5327 132.157 31.3125 130.5 31.3125C128.843 31.3125 127.5 32.5327 127.5 34.0379C127.5 35.5431 128.843 36.7633 130.5 36.7633ZM117.5 34.0379C117.5 35.5431 116.157 36.7633 114.5 36.7633C112.843 36.7633 111.5 35.5431 111.5 34.0379C111.5 32.5327 112.843 31.3125 114.5 31.3125C116.157 31.3125 117.5 32.5327 117.5 34.0379ZM197.5 18.5965C197.5 20.1017 196.157 21.3219 194.5 21.3219C192.843 21.3219 191.5 20.1017 191.5 18.5965C191.5 17.0913 192.843 15.8711 194.5 15.8711C196.157 15.8711 197.5 17.0913 197.5 18.5965ZM178.5 21.3219C180.157 21.3219 181.5 20.1017 181.5 18.5965C181.5 17.0913 180.157 15.8711 178.5 15.8711C176.843 15.8711 175.5 17.0913 175.5 18.5965C175.5 20.1017 176.843 21.3219 178.5 21.3219ZM165.5 18.5965C165.5 20.1017 164.157 21.3219 162.5 21.3219C160.843 21.3219 159.5 20.1017 159.5 18.5965C159.5 17.0913 160.843 15.8711 162.5 15.8711C164.157 15.8711 165.5 17.0913 165.5 18.5965ZM146.5 21.3219C148.157 21.3219 149.5 20.1017 149.5 18.5965C149.5 17.0913 148.157 15.8711 146.5 15.8711C144.843 15.8711 143.5 17.0913 143.5 18.5965C143.5 20.1017 144.843 21.3219 146.5 21.3219ZM133.5 18.5965C133.5 20.1017 132.157 21.3219 130.5 21.3219C128.843 21.3219 127.5 20.1017 127.5 18.5965C127.5 17.0913 128.843 15.8711 130.5 15.8711C132.157 15.8711 133.5 17.0913 133.5 18.5965ZM114.5 21.3219C116.157 21.3219 117.5 20.1017 117.5 18.5965C117.5 17.0913 116.157 15.8711 114.5 15.8711C112.843 15.8711 111.5 17.0913 111.5 18.5965C111.5 20.1017 112.843 21.3219 114.5 21.3219ZM194.5 5.87656C196.157 5.87656 197.5 4.65636 197.5 3.15117C197.5 1.64598 196.157 0.425781 194.5 0.425781C192.843 0.425781 191.5 1.64598 191.5 3.15117C191.5 4.65636 192.843 5.87656 194.5 5.87656ZM181.5 3.15117C181.5 4.65636 180.157 5.87656 178.5 5.87656C176.843 5.87656 175.5 4.65636 175.5 3.15117C175.5 1.64598 176.843 0.425781 178.5 0.425781C180.157 0.425781 181.5 1.64598 181.5 3.15117ZM162.5 5.87656C164.157 5.87656 165.5 4.65636 165.5 3.15117C165.5 1.64598 164.157 0.425781 162.5 0.425781C160.843 0.425781 159.5 1.64598 159.5 3.15117C159.5 4.65636 160.843 5.87656 162.5 5.87656ZM149.5 3.15117C149.5 4.65636 148.157 5.87656 146.5 5.87656C144.843 5.87656 143.5 4.65636 143.5 3.15117C143.5 1.64598 144.843 0.425781 146.5 0.425781C148.157 0.425781 149.5 1.64598 149.5 3.15117ZM130.5 5.87656C132.157 5.87656 133.5 4.65636 133.5 3.15117C133.5 1.64598 132.157 0.425781 130.5 0.425781C128.843 0.425781 127.5 1.64598 127.5 3.15117C127.5 4.65636 128.843 5.87656 130.5 5.87656ZM117.5 3.15117C117.5 4.65636 116.157 5.87656 114.5 5.87656C112.843 5.87656 111.5 4.65636 111.5 3.15117C111.5 1.64598 112.843 0.425781 114.5 0.425781C116.157 0.425781 117.5 1.64598 117.5 3.15117Z" fill="#1350FA" fill-opacity="0.37"/>
</svg>
