<svg width="40" height="40" viewBox="0 0 40 40" fill="none" xmlns="http://www.w3.org/2000/svg">
<path d="M25.2539 8.70251C23.0178 8.01346 21.4407 6.7761 20.5152 5.85735C20.2264 5.56838 19.7599 5.56838 19.4712 5.85735C18.5457 6.7687 16.9759 8.00601 14.7324 8.70251C13.1257 9.19894 11.393 9.33973 9.72733 9.11002C9.5126 9.08038 9.29787 9.14707 9.14237 9.28784C8.97948 9.42862 8.89062 9.62867 8.89062 9.84355V18.72C8.89062 25.6403 13.2518 31.9011 19.7381 34.3015C19.8196 34.3311 19.9084 34.3459 19.9973 34.3459C20.0861 34.3459 20.175 34.3311 20.2564 34.3015C26.7429 31.8935 31.104 25.6328 31.104 18.72V9.84355C31.104 9.62868 31.0151 9.42863 30.8522 9.28784C30.6893 9.14705 30.482 9.08038 30.2673 9.11002C28.6013 9.33971 26.8613 9.19893 25.2622 8.70251H25.2539ZM29.6225 18.7123C29.6225 24.9213 25.7649 30.5524 19.9971 32.8119C14.2291 30.5521 10.3718 24.9209 10.3718 18.7123V10.6586C11.9859 10.7697 13.637 10.5919 15.1773 10.1103C16.947 9.56203 18.6055 8.62844 19.9976 7.39108C21.3896 8.62844 23.0408 9.56198 24.8179 10.1103C26.358 10.5845 28.0092 10.7697 29.6235 10.6586L29.6225 18.7123Z" fill="black"/>
<path d="M6.90157 6.89469C13.7136 0.0781677 24.5459 -0.299764 31.8095 5.73885L30.4175 5.82776C30.0102 5.84999 29.6993 6.20563 29.7289 6.61312C29.7511 7.00581 30.0769 7.30961 30.4693 7.30961H30.5137L33.6458 7.10956C33.6828 7.10956 33.7124 7.08733 33.7494 7.07992C33.8013 7.07251 33.8531 7.05769 33.8975 7.04288C33.9494 7.02065 33.9864 6.9836 34.0308 6.95397C34.0604 6.93174 34.09 6.92433 34.1197 6.89469C34.1197 6.89469 34.1197 6.87987 34.1345 6.87246C34.1715 6.82801 34.2011 6.78355 34.2233 6.73169C34.2455 6.69464 34.2677 6.665 34.2826 6.62796C34.2974 6.59091 34.2974 6.54645 34.3048 6.502C34.3122 6.45013 34.327 6.39827 34.327 6.34641V6.32418L34.1271 3.19005C34.1048 2.78254 33.742 2.46396 33.3422 2.49355C32.935 2.51578 32.624 2.87143 32.6536 3.27891L32.7351 4.59034C24.9014 -1.92223 13.2099 -1.50731 5.85727 5.84989C1.00003 10.7104 -1.00636 17.6307 0.481608 24.351C0.555651 24.6992 0.866633 24.929 1.20721 24.929C1.25904 24.929 1.31828 24.929 1.3701 24.9141C1.76994 24.8252 2.02168 24.4325 1.93283 24.0324C0.548212 17.8086 2.40671 11.407 6.90854 6.9022L6.90157 6.89469Z" fill="black"/>
<path d="M39.5012 15.6435C39.4123 15.2434 39.0125 14.9914 38.6201 15.0803C38.2202 15.1693 37.9685 15.5619 38.0573 15.9621C39.442 22.1859 37.5835 28.5875 33.0816 33.0923C26.2696 39.9088 15.4373 40.2868 8.17372 34.2481L9.56573 34.1592C9.97297 34.137 10.2839 33.7814 10.2543 33.3739C10.2247 32.9664 9.8693 32.6478 9.46949 32.6774L6.33745 32.8774C6.30043 32.8774 6.27081 32.8997 6.23379 32.9071C6.18195 32.9145 6.13013 32.9293 6.0857 32.9441C6.03387 32.9663 5.99685 33.0034 5.95242 33.033C5.92281 33.0553 5.89319 33.0627 5.86357 33.0923C5.86357 33.0923 5.86357 33.1071 5.84876 33.1145C5.81174 33.159 5.78213 33.2034 5.75991 33.2553C5.7377 33.2923 5.71548 33.322 5.70068 33.359C5.68587 33.3961 5.68587 33.4405 5.67846 33.485C5.67106 33.5369 5.65625 33.5887 5.65625 33.6406V33.6628L5.85617 36.7969C5.87838 37.1896 6.20417 37.4934 6.5966 37.4934H6.64103C7.04827 37.4712 7.35923 37.1156 7.32962 36.7081L7.24817 35.3966C10.9355 38.4567 15.4671 39.9978 20.0059 39.9978C25.1223 39.9978 30.2459 38.0491 34.1407 34.1444C38.9979 29.2839 41.0043 22.3635 39.5163 15.6432L39.5012 15.6435Z" fill="black"/>
<path d="M24.4492 16.4548L18.9404 21.9673L15.5418 18.5665C15.253 18.2775 14.7865 18.2775 14.4978 18.5665C14.2091 18.8554 14.209 19.3222 14.4978 19.6112L18.4221 23.5381C18.5702 23.6862 18.7553 23.7529 18.9478 23.7529C19.1403 23.7529 19.3254 23.6788 19.4735 23.5381L25.5079 17.4997C25.7966 17.2107 25.7966 16.7439 25.5079 16.455C25.2191 16.1661 24.7526 16.166 24.4639 16.455L24.4492 16.4548Z" fill="black"/>
</svg>
