<svg width="40" height="40" viewBox="0 0 40 40" fill="none" xmlns="http://www.w3.org/2000/svg">
<path d="M36.7401 0.00204776H27.4451C25.6472 0.00204776 24.1852 1.46427 24.1852 3.26245V9.55276H13.7432C11.4335 9.55276 9.55416 11.4325 9.55416 13.7425V24.1861H3.2599C1.462 24.1861 0 25.6483 0 27.4465V36.7396C0 38.5378 1.462 40 3.2599 40H12.5549C14.3528 40 15.8148 38.5378 15.8148 36.7396V30.4493H26.2568C28.5665 30.4493 30.4458 28.5695 30.4458 26.2563V15.8127H36.7401C38.538 15.8127 40 14.3505 40 12.5523L39.9984 3.2604C39.9984 1.46222 38.5364 0 36.7385 0L36.7401 0.00204776ZM14.6854 36.7385C14.6854 37.9095 13.7321 38.8646 12.5596 38.8646L3.26789 38.863C2.09699 38.863 1.14207 37.9095 1.14207 36.7369V27.4437C1.14207 26.2726 2.0954 25.3176 3.26789 25.3176H12.5629C13.1403 25.3176 13.6602 25.5463 14.0457 25.9191C14.0505 25.9271 14.0585 25.9319 14.0617 25.9399C14.0697 25.9479 14.0745 25.9527 14.0825 25.9607C14.4552 26.3463 14.6887 26.8662 14.6887 27.4437V36.7369L14.6854 36.7385ZM29.3165 26.2531C29.3165 27.9409 27.944 29.312 26.2613 29.312H15.8193V27.445C15.8193 26.7491 15.5986 26.1059 15.2291 25.578L25.2489 15.5599V19.5211C25.2489 19.8331 25.5032 20.0858 25.8135 20.0858C26.1255 20.0858 26.3782 19.8315 26.3782 19.5211V14.192C26.3782 13.88 26.1239 13.6273 25.8135 13.6273H20.4853C20.1733 13.6273 19.9206 13.8816 19.9206 14.192C19.9206 14.504 20.1749 14.7567 20.4853 14.7567H24.441L14.4212 24.7781C13.8934 24.4053 13.2503 24.1877 12.5545 24.1877H10.6878V13.7442C10.6878 12.0563 12.0603 10.6885 13.743 10.6885H26.2533C27.0802 10.6885 27.8305 11.0197 28.3791 11.5524C28.3871 11.5652 28.3999 11.5764 28.4111 11.5844C28.4239 11.5924 28.4351 11.6052 28.4479 11.6164C28.9806 12.1651 29.3117 12.9187 29.3117 13.7426V26.2548L29.3165 26.2531ZM38.8658 12.554C38.8658 13.7251 37.9124 14.6801 36.7399 14.6801H30.4457V13.7426C30.4457 12.7924 30.1258 11.9124 29.5899 11.2069L36.4616 4.33425V8.29539C36.4616 8.60736 36.7159 8.86012 37.0262 8.86012C37.3381 8.86012 37.5909 8.60576 37.5909 8.29539V2.9663C37.5909 2.65434 37.3365 2.40157 37.0262 2.40157H31.6979C31.386 2.40157 31.1333 2.65594 31.1333 2.9663C31.1333 3.27827 31.3876 3.53103 31.6979 3.53103H35.6537L28.782 10.4037C28.0782 9.86779 27.2017 9.54784 26.2467 9.54784H25.3094V3.25754C25.3094 2.08646 26.2627 1.13139 27.4352 1.13139H36.7302C37.9011 1.13139 38.856 2.08487 38.856 3.25754V12.5507L38.8658 12.554ZM12.6376 27.9331V33.2622C12.6376 33.5741 12.3832 33.8269 12.0729 33.8269C11.761 33.8269 11.5083 33.5725 11.5083 33.2622V29.3058L3.3791 37.4391C3.26873 37.5495 3.12477 37.6071 2.97761 37.6071C2.83045 37.6071 2.68649 37.5495 2.57612 37.4391C2.35538 37.2183 2.35538 36.8568 2.57612 36.636L10.7053 28.5027H6.74476C6.43284 28.5027 6.18012 28.2484 6.18012 27.938C6.18012 27.626 6.43444 27.3733 6.74476 27.3733H12.073H12.089H12.1306C12.1386 27.3733 12.1514 27.3733 12.1594 27.3781H12.1834C12.1962 27.3781 12.2042 27.3829 12.2154 27.3861C12.2234 27.3861 12.2314 27.3861 12.2394 27.3909C12.2474 27.3909 12.2602 27.3989 12.2682 27.4037C12.2762 27.4037 12.2842 27.4085 12.2922 27.4117C12.3002 27.4117 12.3082 27.4197 12.3162 27.4245C12.3242 27.4245 12.3322 27.4325 12.3402 27.4373C12.3482 27.4421 12.3562 27.4453 12.3642 27.4533C12.3721 27.4581 12.3801 27.4613 12.3849 27.4661C12.3929 27.4741 12.4057 27.4789 12.4137 27.4869C12.4185 27.4917 12.4265 27.4949 12.4297 27.4997C12.4585 27.5236 12.4873 27.5492 12.5081 27.578C12.5129 27.5828 12.5161 27.5908 12.5209 27.5988C12.5289 27.6068 12.5337 27.6148 12.5417 27.6228C12.5465 27.6308 12.5497 27.6388 12.5577 27.6468C12.5625 27.6548 12.5657 27.6628 12.5705 27.6708C12.5753 27.6788 12.5785 27.6868 12.5833 27.6948C12.5833 27.7028 12.5913 27.7108 12.5961 27.7188C12.5961 27.7268 12.6041 27.7348 12.6041 27.7428C12.6041 27.7508 12.6121 27.7588 12.6121 27.7668C12.6121 27.7748 12.6169 27.7828 12.6201 27.7956C12.6201 27.8036 12.6249 27.8116 12.6281 27.8244C12.6281 27.8372 12.6281 27.8452 12.6329 27.8564V27.8772V27.9348L12.6376 27.9331Z" fill="black"/>
</svg>
